{
	"asset":{
		"generator":"Khronos glTF Blender I/O v3.6.28",
		"version":"2.0"
	},
	"scene":0,
	"scenes":[
		{
			"name":"Scene",
			"nodes":[
				0
			]
		}
	],
	"nodes":[
		{
			"mesh":0,
			"name":"Curve.001",
			"rotation":[
				0.7071068286895752,
				0,
				0,
				0.7071068286895752
			],
			"scale":[
				80,
				80,
				80
			]
		}
	],
	"materials":[
		{
			"doubleSided":true,
			"name":"SVGMat.001",
			"pbrMetallicRoughness":{
				"baseColorFactor":[
					0.002428006613627076,
					0.054480165243148804,
					0.26635557413101196,
					1
				],
				"metallicFactor":0,
				"roughnessFactor":0.4000000059604645
			}
		}
	],
	"meshes":[
		{
			"name":"Curve.001",
			"primitives":[
				{
					"attributes":{
						"POSITION":0,
						"NORMAL":1,
						"TEXCOORD_0":2
					},
					"indices":3,
					"material":0
				}
			]
		}
	],
	"accessors":[
		{
			"bufferView":0,
			"componentType":5126,
			"count":9920,
			"max":[
				0.05003878474235535,
				0.004999999888241291,
				0.011591262184083462
			],
			"min":[
				-0.034824904054403305,
				-0.004999999888241291,
				-0.01023291889578104
			],
			"type":"VEC3"
		},
		{
			"bufferView":1,
			"componentType":5126,
			"count":9920,
			"type":"VEC3"
		},
		{
			"bufferView":2,
			"componentType":5126,
			"count":9920,
			"type":"VEC2"
		},
		{
			"bufferView":3,
			"componentType":5123,
			"count":20766,
			"type":"SCALAR"
		}
	],
	"bufferViews":[
		{
			"buffer":0,
			"byteLength":119040,
			"byteOffset":0,
			"target":34962
		},
		{
			"buffer":0,
			"byteLength":119040,
			"byteOffset":119040,
			"target":34962
		},
		{
			"buffer":0,
			"byteLength":79360,
			"byteOffset":238080,
			"target":34962
		},
		{
			"buffer":0,
			"byteLength":41532,
			"byteOffset":317440,
			"target":34963
		}
	],
	"buffers":[
		{
			"byteLength":358972,
			"uri":"data:application/octet-stream;base64,"
		}
	]
}
