{
    "asset" : {
        "generator" : "Khronos glTF Blender I/O v1.8.19",
        "version" : "2.0"
    },
    "scene" : 0,
    "scenes" : [
        {
            "name" : "Scene",
            "nodes" : [
                0
            ]
        }
    ],
    "nodes" : [
        {
            "mesh" : 0,
            "name" : "Cube"
        }
    ],
    "materials" : [
        {
            "doubleSided" : true,
            "emissiveFactor" : [
                0.03428802115631413,
                0.1505884171935037,
                0.14461107125545425
            ],
            "name" : "Material.001",
            "pbrMetallicRoughness" : {
                "baseColorFactor" : [
                    0.32314229011535645,
                    0.8468729853630066,
                    0.7758222818374634,
                    1
                ],
                "metallicFactor" : 0,
                "roughnessFactor" : 0.4000000059604645
            }
        }
    ],
    "meshes" : [
        {
            "name" : "Cube.001",
            "primitives" : [
                {
                    "attributes" : {
                        "POSITION" : 0,
                        "NORMAL" : 1,
                        "TEXCOORD_0" : 2
                    },
                    "indices" : 3,
                    "material" : 0
                }
            ]
        }
    ],
    "accessors" : [
        {
            "bufferView" : 0,
            "componentType" : 5126,
            "count" : 815,
            "max" : [
                2.629629135131836,
                2.7744760513305664,
                1.0000003576278687
            ],
            "min" : [
                -2.919322967529297,
                -2.7744760513305664,
                -1.0000001192092896
            ],
            "type" : "VEC3"
        },
        {
            "bufferView" : 1,
            "componentType" : 5126,
            "count" : 815,
            "type" : "VEC3"
        },
        {
            "bufferView" : 2,
            "componentType" : 5126,
            "count" : 815,
            "type" : "VEC2"
        },
        {
            "bufferView" : 3,
            "componentType" : 5123,
            "count" : 2664,
            "type" : "SCALAR"
        }
    ],
    "bufferViews" : [
        {
            "buffer" : 0,
            "byteLength" : 9780,
            "byteOffset" : 0
        },
        {
            "buffer" : 0,
            "byteLength" : 9780,
            "byteOffset" : 9780
        },
        {
            "buffer" : 0,
            "byteLength" : 6520,
            "byteOffset" : 19560
        },
        {
            "buffer" : 0,
            "byteLength" : 5328,
            "byteOffset" : 26080
        }
    ],
    "buffers" : [
        {
            "byteLength" : 31408,
            "uri" : "data:application/octet-stream;base64,"
        }
    ]
}
